<?xml version="1.0" encoding="UTF-8" standalone="no"?>
<!DOCTYPE svg PUBLIC "-//W3C//DTD SVG 1.1//EN"
 "http://www.w3.org/Graphics/SVG/1.1/DTD/svg11.dtd">
<!-- Generated by graphviz version 2.38.0 (20140413.2041)
 -->
<!-- Title: controllers_diagram Pages: 1 -->
<svg width="677pt" height="719pt"
 viewBox="0.00 0.00 677.00 718.50" xmlns="http://www.w3.org/2000/svg" xmlns:xlink="http://www.w3.org/1999/xlink">
<g id="graph0" class="graph" transform="scale(1 1) rotate(0) translate(242.5 426)">
<title>controllers_diagram</title>
<polygon fill="none" stroke="none" points="-242.5,292.5 -242.5,-426 434.5,-426 434.5,292.5 -242.5,292.5"/>
<!-- _diagram_info -->
<g id="node1" class="node"><title>_diagram_info</title>
<text text-anchor="start" x="110" y="157.4" font-family="Times,serif" font-size="13.00">Controllers diagram</text>
<text text-anchor="start" x="110" y="171.4" font-family="Times,serif" font-size="13.00">Date: Sep 09 2015 &#45; 02:05</text>
<text text-anchor="start" x="110" y="185.4" font-family="Times,serif" font-size="13.00">Migration version: 20150908112732</text>
<text text-anchor="start" x="110" y="199.4" font-family="Times,serif" font-size="13.00">Generated by RailRoady 1.3.1</text>
<text text-anchor="start" x="110" y="213.4" font-family="Times,serif" font-size="13.00">http://railroady.prestonlee.com</text>
</g>
<!-- TypesController -->
<g id="node2" class="node"><title>TypesController</title>
<path fill="none" stroke="black" d="M182.5,-171C182.5,-171 263.5,-171 263.5,-171 269.5,-171 275.5,-177 275.5,-183 275.5,-183 275.5,-357 275.5,-357 275.5,-363 269.5,-369 263.5,-369 263.5,-369 182.5,-369 182.5,-369 176.5,-369 170.5,-363 170.5,-357 170.5,-357 170.5,-183 170.5,-183 170.5,-177 176.5,-171 182.5,-171"/>
<text text-anchor="middle" x="223" y="-353.8" font-family="Times,serif" font-size="14.00">TypesController</text>
<polyline fill="none" stroke="black" points="170.5,-346 275.5,-346 "/>
<text text-anchor="start" x="178.5" y="-330.8" font-family="Times,serif" font-size="14.00">create</text>
<text text-anchor="start" x="178.5" y="-315.8" font-family="Times,serif" font-size="14.00">destroy</text>
<text text-anchor="start" x="178.5" y="-300.8" font-family="Times,serif" font-size="14.00">edit</text>
<text text-anchor="start" x="178.5" y="-285.8" font-family="Times,serif" font-size="14.00">index</text>
<text text-anchor="start" x="178.5" y="-270.8" font-family="Times,serif" font-size="14.00">new</text>
<text text-anchor="start" x="178.5" y="-255.8" font-family="Times,serif" font-size="14.00">show</text>
<text text-anchor="start" x="178.5" y="-240.8" font-family="Times,serif" font-size="14.00">update</text>
<polyline fill="none" stroke="black" points="170.5,-233 275.5,-233 "/>
<polyline fill="none" stroke="black" points="170.5,-209 275.5,-209 "/>
<text text-anchor="start" x="178.5" y="-193.8" font-family="Times,serif" font-size="14.00">_layout</text>
<text text-anchor="start" x="178.5" y="-178.8" font-family="Times,serif" font-size="14.00">type_params</text>
</g>
<!-- UsersController -->
<g id="node3" class="node"><title>UsersController</title>
<path fill="none" stroke="black" d="M301.5,102C301.5,102 380.5,102 380.5,102 386.5,102 392.5,96 392.5,90 392.5,90 392.5,-54 392.5,-54 392.5,-60 386.5,-66 380.5,-66 380.5,-66 301.5,-66 301.5,-66 295.5,-66 289.5,-60 289.5,-54 289.5,-54 289.5,90 289.5,90 289.5,96 295.5,102 301.5,102"/>
<text text-anchor="middle" x="341" y="-50.8" font-family="Times,serif" font-size="14.00">UsersController</text>
<polyline fill="none" stroke="black" points="289.5,-43 392.5,-43 "/>
<text text-anchor="start" x="297.5" y="-27.8" font-family="Times,serif" font-size="14.00">create</text>
<text text-anchor="start" x="297.5" y="-12.8" font-family="Times,serif" font-size="14.00">edit</text>
<text text-anchor="start" x="297.5" y="2.2" font-family="Times,serif" font-size="14.00">new</text>
<text text-anchor="start" x="297.5" y="17.2" font-family="Times,serif" font-size="14.00">show</text>
<text text-anchor="start" x="297.5" y="32.2" font-family="Times,serif" font-size="14.00">update</text>
<polyline fill="none" stroke="black" points="289.5,40 392.5,40 "/>
<polyline fill="none" stroke="black" points="289.5,64 392.5,64 "/>
<text text-anchor="start" x="297.5" y="79.2" font-family="Times,serif" font-size="14.00">_layout</text>
<text text-anchor="start" x="297.5" y="94.2" font-family="Times,serif" font-size="14.00">user_params</text>
</g>
<!-- LoginsController -->
<g id="node4" class="node"><title>LoginsController</title>
<path fill="none" stroke="black" d="M-56,288C-56,288 30,288 30,288 36,288 42,282 42,276 42,276 42,192 42,192 42,186 36,180 30,180 30,180 -56,180 -56,180 -62,180 -68,186 -68,192 -68,192 -68,276 -68,276 -68,282 -62,288 -56,288"/>
<text text-anchor="middle" x="-13" y="195.2" font-family="Times,serif" font-size="14.00">LoginsController</text>
<polyline fill="none" stroke="black" points="-68,203 42,203 "/>
<text text-anchor="start" x="-60" y="218.2" font-family="Times,serif" font-size="14.00">create</text>
<text text-anchor="start" x="-60" y="233.2" font-family="Times,serif" font-size="14.00">destroy</text>
<polyline fill="none" stroke="black" points="-68,241 42,241 "/>
<polyline fill="none" stroke="black" points="-68,265 42,265 "/>
<text text-anchor="start" x="-60" y="280.2" font-family="Times,serif" font-size="14.00">_layout</text>
</g>
<!-- ApplicationController -->
<g id="node5" class="node"><title>ApplicationController</title>
<path fill="none" stroke="black" d="M-226,68C-226,68 -114,68 -114,68 -108,68 -102,62 -102,56 -102,56 -102,-104 -102,-104 -102,-110 -108,-116 -114,-116 -114,-116 -226,-116 -226,-116 -232,-116 -238,-110 -238,-104 -238,-104 -238,56 -238,56 -238,62 -232,68 -226,68"/>
<text text-anchor="middle" x="-170" y="-100.8" font-family="Times,serif" font-size="14.00">ApplicationController</text>
<polyline fill="none" stroke="black" points="-238,-93 -102,-93 "/>
<polyline fill="none" stroke="black" points="-238,-69 -102,-69 "/>
<polyline fill="none" stroke="black" points="-238,-45 -102,-45 "/>
<text text-anchor="start" x="-230" y="-29.8" font-family="Times,serif" font-size="14.00">_layout</text>
<text text-anchor="start" x="-230" y="-14.8" font-family="Times,serif" font-size="14.00">all_types</text>
<text text-anchor="start" x="-230" y="0.2" font-family="Times,serif" font-size="14.00">current_order</text>
<text text-anchor="start" x="-230" y="15.2" font-family="Times,serif" font-size="14.00">current_user</text>
<text text-anchor="start" x="-230" y="30.2" font-family="Times,serif" font-size="14.00">load_menu</text>
<text text-anchor="start" x="-230" y="45.2" font-family="Times,serif" font-size="14.00">require_login</text>
<text text-anchor="start" x="-230" y="60.2" font-family="Times,serif" font-size="14.00">session_expiration</text>
</g>
<!-- CommentsController -->
<g id="node6" class="node"><title>CommentsController</title>
<path fill="none" stroke="black" d="M-226,237C-226,237 -118,237 -118,237 -112,237 -106,231 -106,225 -106,225 -106,111 -106,111 -106,105 -112,99 -118,99 -118,99 -226,99 -226,99 -232,99 -238,105 -238,111 -238,111 -238,225 -238,225 -238,231 -232,237 -226,237"/>
<text text-anchor="middle" x="-172" y="114.2" font-family="Times,serif" font-size="14.00">CommentsController</text>
<polyline fill="none" stroke="black" points="-238,122 -106,122 "/>
<text text-anchor="start" x="-230" y="137.2" font-family="Times,serif" font-size="14.00">create</text>
<text text-anchor="start" x="-230" y="152.2" font-family="Times,serif" font-size="14.00">index</text>
<text text-anchor="start" x="-230" y="167.2" font-family="Times,serif" font-size="14.00">new</text>
<polyline fill="none" stroke="black" points="-238,175 -106,175 "/>
<polyline fill="none" stroke="black" points="-238,199 -106,199 "/>
<text text-anchor="start" x="-230" y="214.2" font-family="Times,serif" font-size="14.00">_layout</text>
<text text-anchor="start" x="-230" y="229.2" font-family="Times,serif" font-size="14.00">comment_params</text>
</g>
<!-- OrderItemsController -->
<g id="node7" class="node"><title>OrderItemsController</title>
<path fill="none" stroke="black" d="M-73,-153.5C-73,-153.5 59,-153.5 59,-153.5 65,-153.5 71,-159.5 71,-165.5 71,-165.5 71,-324.5 71,-324.5 71,-330.5 65,-336.5 59,-336.5 59,-336.5 -73,-336.5 -73,-336.5 -79,-336.5 -85,-330.5 -85,-324.5 -85,-324.5 -85,-165.5 -85,-165.5 -85,-159.5 -79,-153.5 -73,-153.5"/>
<text text-anchor="middle" x="-7" y="-321.3" font-family="Times,serif" font-size="14.00">OrderItemsController</text>
<polyline fill="none" stroke="black" points="-85,-313.5 71,-313.5 "/>
<text text-anchor="start" x="-77" y="-298.3" font-family="Times,serif" font-size="14.00">create</text>
<text text-anchor="start" x="-77" y="-283.3" font-family="Times,serif" font-size="14.00">destroy</text>
<text text-anchor="start" x="-77" y="-268.3" font-family="Times,serif" font-size="14.00">update</text>
<polyline fill="none" stroke="black" points="-85,-260.5 71,-260.5 "/>
<polyline fill="none" stroke="black" points="-85,-236.5 71,-236.5 "/>
<text text-anchor="start" x="-77" y="-221.3" font-family="Times,serif" font-size="14.00">_layout</text>
<text text-anchor="start" x="-77" y="-206.3" font-family="Times,serif" font-size="14.00">create_order_item</text>
<text text-anchor="start" x="-77" y="-191.3" font-family="Times,serif" font-size="14.00">decrease_flower_quantity</text>
<text text-anchor="start" x="-77" y="-176.3" font-family="Times,serif" font-size="14.00">increase_flower_quantity</text>
<text text-anchor="start" x="-77" y="-161.3" font-family="Times,serif" font-size="14.00">order_item_params</text>
</g>
<!-- OrdersController -->
<g id="node8" class="node"><title>OrdersController</title>
<path fill="none" stroke="black" d="M114,101.5C114,101.5 242,101.5 242,101.5 248,101.5 254,95.5 254,89.5 254,89.5 254,-129.5 254,-129.5 254,-135.5 248,-141.5 242,-141.5 242,-141.5 114,-141.5 114,-141.5 108,-141.5 102,-135.5 102,-129.5 102,-129.5 102,89.5 102,89.5 102,95.5 108,101.5 114,101.5"/>
<text text-anchor="middle" x="178" y="-126.3" font-family="Times,serif" font-size="14.00">OrdersController</text>
<polyline fill="none" stroke="black" points="102,-118.5 254,-118.5 "/>
<text text-anchor="start" x="110" y="-103.3" font-family="Times,serif" font-size="14.00">cancel</text>
<text text-anchor="start" x="110" y="-88.3" font-family="Times,serif" font-size="14.00">complete</text>
<text text-anchor="start" x="110" y="-73.3" font-family="Times,serif" font-size="14.00">create</text>
<text text-anchor="start" x="110" y="-58.3" font-family="Times,serif" font-size="14.00">destroy</text>
<text text-anchor="start" x="110" y="-43.3" font-family="Times,serif" font-size="14.00">finish</text>
<text text-anchor="start" x="110" y="-28.3" font-family="Times,serif" font-size="14.00">index</text>
<text text-anchor="start" x="110" y="-13.3" font-family="Times,serif" font-size="14.00">pay</text>
<text text-anchor="start" x="110" y="1.7" font-family="Times,serif" font-size="14.00">payment</text>
<polyline fill="none" stroke="black" points="102,9.5 254,9.5 "/>
<polyline fill="none" stroke="black" points="102,33.5 254,33.5 "/>
<text text-anchor="start" x="110" y="48.7" font-family="Times,serif" font-size="14.00">_layout</text>
<text text-anchor="start" x="110" y="63.7" font-family="Times,serif" font-size="14.00">date_param</text>
<text text-anchor="start" x="110" y="78.7" font-family="Times,serif" font-size="14.00">delivery_date_in_future?</text>
<text text-anchor="start" x="110" y="93.7" font-family="Times,serif" font-size="14.00">order_params</text>
</g>
<!-- WelcomeController -->
<g id="node9" class="node"><title>WelcomeController</title>
<path fill="none" stroke="black" d="M317.5,-102.5C317.5,-102.5 418.5,-102.5 418.5,-102.5 424.5,-102.5 430.5,-108.5 430.5,-114.5 430.5,-114.5 430.5,-183.5 430.5,-183.5 430.5,-189.5 424.5,-195.5 418.5,-195.5 418.5,-195.5 317.5,-195.5 317.5,-195.5 311.5,-195.5 305.5,-189.5 305.5,-183.5 305.5,-183.5 305.5,-114.5 305.5,-114.5 305.5,-108.5 311.5,-102.5 317.5,-102.5"/>
<text text-anchor="middle" x="368" y="-180.3" font-family="Times,serif" font-size="14.00">WelcomeController</text>
<polyline fill="none" stroke="black" points="305.5,-172.5 430.5,-172.5 "/>
<text text-anchor="start" x="313.5" y="-157.3" font-family="Times,serif" font-size="14.00">index</text>
<polyline fill="none" stroke="black" points="305.5,-149.5 430.5,-149.5 "/>
<polyline fill="none" stroke="black" points="305.5,-125.5 430.5,-125.5 "/>
<text text-anchor="start" x="313.5" y="-110.3" font-family="Times,serif" font-size="14.00">_layout</text>
</g>
<!-- ChartsController -->
<g id="node10" class="node"><title>ChartsController</title>
<path fill="none" stroke="black" d="M-226.5,-238.5C-226.5,-238.5 -129.5,-238.5 -129.5,-238.5 -123.5,-238.5 -117.5,-244.5 -117.5,-250.5 -117.5,-250.5 -117.5,-409.5 -117.5,-409.5 -117.5,-415.5 -123.5,-421.5 -129.5,-421.5 -129.5,-421.5 -226.5,-421.5 -226.5,-421.5 -232.5,-421.5 -238.5,-415.5 -238.5,-409.5 -238.5,-409.5 -238.5,-250.5 -238.5,-250.5 -238.5,-244.5 -232.5,-238.5 -226.5,-238.5"/>
<text text-anchor="middle" x="-178" y="-406.3" font-family="Times,serif" font-size="14.00">ChartsController</text>
<polyline fill="none" stroke="black" points="-238.5,-398.5 -117.5,-398.5 "/>
<text text-anchor="start" x="-230.5" y="-383.3" font-family="Times,serif" font-size="14.00">flowers_by_price</text>
<text text-anchor="start" x="-230.5" y="-368.3" font-family="Times,serif" font-size="14.00">flowers_by_types</text>
<text text-anchor="start" x="-230.5" y="-353.3" font-family="Times,serif" font-size="14.00">orders_by_creation</text>
<text text-anchor="start" x="-230.5" y="-338.3" font-family="Times,serif" font-size="14.00">orders_by_state</text>
<text text-anchor="start" x="-230.5" y="-323.3" font-family="Times,serif" font-size="14.00">orders_by_total</text>
<text text-anchor="start" x="-230.5" y="-308.3" font-family="Times,serif" font-size="14.00">orders_by_users</text>
<text text-anchor="start" x="-230.5" y="-293.3" font-family="Times,serif" font-size="14.00">users_by_creation</text>
<polyline fill="none" stroke="black" points="-238.5,-285.5 -117.5,-285.5 "/>
<polyline fill="none" stroke="black" points="-238.5,-261.5 -117.5,-261.5 "/>
<text text-anchor="start" x="-230.5" y="-246.3" font-family="Times,serif" font-size="14.00">_layout</text>
</g>
<!-- FlowersController -->
<g id="node11" class="node"><title>FlowersController</title>
<path fill="none" stroke="black" d="M-55.5,152.5C-55.5,152.5 53.5,152.5 53.5,152.5 59.5,152.5 65.5,146.5 65.5,140.5 65.5,140.5 65.5,-108.5 65.5,-108.5 65.5,-114.5 59.5,-120.5 53.5,-120.5 53.5,-120.5 -55.5,-120.5 -55.5,-120.5 -61.5,-120.5 -67.5,-114.5 -67.5,-108.5 -67.5,-108.5 -67.5,140.5 -67.5,140.5 -67.5,146.5 -61.5,152.5 -55.5,152.5"/>
<text text-anchor="middle" x="-1" y="-105.3" font-family="Times,serif" font-size="14.00">FlowersController</text>
<polyline fill="none" stroke="black" points="-67.5,-97.5 65.5,-97.5 "/>
<text text-anchor="start" x="-59.5" y="-82.3" font-family="Times,serif" font-size="14.00">admin_index</text>
<text text-anchor="start" x="-59.5" y="-67.3" font-family="Times,serif" font-size="14.00">create</text>
<text text-anchor="start" x="-59.5" y="-52.3" font-family="Times,serif" font-size="14.00">destroy</text>
<text text-anchor="start" x="-59.5" y="-37.3" font-family="Times,serif" font-size="14.00">edit</text>
<text text-anchor="start" x="-59.5" y="-22.3" font-family="Times,serif" font-size="14.00">index</text>
<text text-anchor="start" x="-59.5" y="-7.3" font-family="Times,serif" font-size="14.00">new</text>
<text text-anchor="start" x="-59.5" y="7.7" font-family="Times,serif" font-size="14.00">search</text>
<text text-anchor="start" x="-59.5" y="22.7" font-family="Times,serif" font-size="14.00">show</text>
<text text-anchor="start" x="-59.5" y="37.7" font-family="Times,serif" font-size="14.00">update</text>
<polyline fill="none" stroke="black" points="-67.5,45.5 65.5,45.5 "/>
<polyline fill="none" stroke="black" points="-67.5,69.5 65.5,69.5 "/>
<text text-anchor="start" x="-59.5" y="84.7" font-family="Times,serif" font-size="14.00">_layout</text>
<text text-anchor="start" x="-59.5" y="99.7" font-family="Times,serif" font-size="14.00">availability?</text>
<text text-anchor="start" x="-59.5" y="114.7" font-family="Times,serif" font-size="14.00">current_type</text>
<text text-anchor="start" x="-59.5" y="129.7" font-family="Times,serif" font-size="14.00">flower_params</text>
<text text-anchor="start" x="-59.5" y="144.7" font-family="Times,serif" font-size="14.00">search_and_highlight</text>
</g>
<!-- CartsController -->
<g id="node12" class="node"><title>CartsController</title>
<path fill="none" stroke="black" d="M318.5,-222C318.5,-222 395.5,-222 395.5,-222 401.5,-222 407.5,-228 407.5,-234 407.5,-234 407.5,-304 407.5,-304 407.5,-310 401.5,-316 395.5,-316 395.5,-316 318.5,-316 318.5,-316 312.5,-316 306.5,-310 306.5,-304 306.5,-304 306.5,-234 306.5,-234 306.5,-228 312.5,-222 318.5,-222"/>
<text text-anchor="middle" x="357" y="-300.8" font-family="Times,serif" font-size="14.00">CartsController</text>
<polyline fill="none" stroke="black" points="306.5,-293 407.5,-293 "/>
<polyline fill="none" stroke="black" points="306.5,-269 407.5,-269 "/>
<polyline fill="none" stroke="black" points="306.5,-245 407.5,-245 "/>
<text text-anchor="start" x="314.5" y="-229.8" font-family="Times,serif" font-size="14.00">_layout</text>
</g>
</g>
</svg>
