<?xml version="1.0" encoding="UTF-8" standalone="no"?>
<!DOCTYPE svg PUBLIC "-//W3C//DTD SVG 1.1//EN"
 "http://www.w3.org/Graphics/SVG/1.1/DTD/svg11.dtd">
<!-- Generated by graphviz version 2.38.0 (20140413.2041)
 -->
<!-- Title: models_diagram Pages: 1 -->
<svg width="517pt" height="230pt"
 viewBox="0.00 0.00 517.20 230.00" xmlns="http://www.w3.org/2000/svg" xmlns:xlink="http://www.w3.org/1999/xlink">
<g id="graph0" class="graph" transform="scale(1 1) rotate(0) translate(4 226)">
<title>models_diagram</title>
<polygon fill="none" stroke="none" points="-4,4 -4,-226 513.197,-226 513.197,4 -4,4"/>
<!-- _diagram_info -->
<g id="node1" class="node"><title>_diagram_info</title>
<text text-anchor="start" x="8" y="-207.6" font-family="Times,serif" font-size="13.00">Models diagram</text>
<text text-anchor="start" x="8" y="-193.6" font-family="Times,serif" font-size="13.00">Date: Sep 09 2015 &#45; 02:05</text>
<text text-anchor="start" x="8" y="-179.6" font-family="Times,serif" font-size="13.00">Migration version: 20150908112732</text>
<text text-anchor="start" x="8" y="-165.6" font-family="Times,serif" font-size="13.00">Generated by RailRoady 1.3.1</text>
<text text-anchor="start" x="8" y="-151.6" font-family="Times,serif" font-size="13.00">http://railroady.prestonlee.com</text>
</g>
<!-- Session -->
<g id="node2" class="node"><title>Session</title>
<ellipse fill="none" stroke="black" cx="391" cy="-90" rx="37.8943" ry="18"/>
<text text-anchor="middle" x="391" y="-86.3" font-family="Times,serif" font-size="14.00">Session</text>
</g>
<!-- Order -->
<g id="node3" class="node"><title>Order</title>
<ellipse fill="none" stroke="black" cx="478" cy="-90" rx="31.3957" ry="18"/>
<text text-anchor="middle" x="478" y="-86.3" font-family="Times,serif" font-size="14.00">Order</text>
</g>
<!-- OrderItem -->
<g id="node4" class="node"><title>OrderItem</title>
<ellipse fill="none" stroke="black" cx="441" cy="-18" rx="48.1917" ry="18"/>
<text text-anchor="middle" x="441" y="-14.3" font-family="Times,serif" font-size="14.00">OrderItem</text>
</g>
<!-- Order&#45;&gt;OrderItem -->
<g id="edge1" class="edge"><title>Order&#45;&gt;OrderItem</title>
<path fill="none" stroke="#393eb1" d="M465.347,-65.0625C461.949,-58.6325 458.256,-51.6473 454.799,-45.106"/>
<ellipse fill="none" stroke="#393eb1" cx="467.362" cy="-68.8746" rx="4.00002" ry="4.00002"/>
<polygon fill="#393eb1" stroke="#393eb1" points="454.636,-44.7972 453.941,-33.8533 452.299,-40.3767 449.963,-35.9562 449.963,-35.9562 449.963,-35.9562 452.299,-40.3767 445.984,-38.0591 454.636,-44.7972 454.636,-44.7972"/>
</g>
<!-- User -->
<g id="node5" class="node"><title>User</title>
<ellipse fill="none" stroke="black" cx="391" cy="-183" rx="27.0966" ry="18"/>
<text text-anchor="middle" x="391" y="-179.3" font-family="Times,serif" font-size="14.00">User</text>
</g>
<!-- User&#45;&gt;Session -->
<g id="edge4" class="edge"><title>User&#45;&gt;Session</title>
<path fill="none" stroke="#916623" d="M391,-156.729C391,-144.118 391,-128.905 391,-116.292"/>
<ellipse fill="none" stroke="#916623" cx="391" cy="-160.884" rx="4" ry="4"/>
<ellipse fill="#916623" stroke="#916623" cx="391" cy="-112.04" rx="4" ry="4"/>
</g>
<!-- User&#45;&gt;Order -->
<g id="edge2" class="edge"><title>User&#45;&gt;Order</title>
<path fill="none" stroke="#b8746a" d="M410.58,-161.52C424.248,-147.223 442.489,-128.144 456.55,-113.436"/>
<ellipse fill="none" stroke="#b8746a" cx="407.742" cy="-164.488" rx="4.00002" ry="4.00002"/>
<polygon fill="#b8746a" stroke="#b8746a" points="456.566,-113.419 466.729,-109.301 460.021,-109.805 463.476,-106.191 463.476,-106.191 463.476,-106.191 460.021,-109.805 460.224,-103.082 456.566,-113.419 456.566,-113.419"/>
</g>
<!-- Comment -->
<g id="node8" class="node"><title>Comment</title>
<ellipse fill="none" stroke="black" cx="293" cy="-18" rx="46.2923" ry="18"/>
<text text-anchor="middle" x="293" y="-14.3" font-family="Times,serif" font-size="14.00">Comment</text>
</g>
<!-- User&#45;&gt;Comment -->
<g id="edge3" class="edge"><title>User&#45;&gt;Comment</title>
<path fill="none" stroke="#eb10a5" d="M376.345,-159.516C366.934,-144.934 354.545,-125.468 344,-108 331.343,-87.032 317.566,-62.9064 307.525,-45.0676"/>
<ellipse fill="none" stroke="#eb10a5" cx="378.531" cy="-162.893" rx="4.00002" ry="4.00002"/>
<polygon fill="#eb10a5" stroke="#eb10a5" points="307.255,-44.5855 306.287,-33.6624 304.808,-40.2247 302.362,-35.864 302.362,-35.864 302.362,-35.864 304.808,-40.2247 298.438,-38.0655 307.255,-44.5855 307.255,-44.5855"/>
</g>
<!-- Type -->
<g id="node6" class="node"><title>Type</title>
<ellipse fill="none" stroke="black" cx="261" cy="-183" rx="28.6953" ry="18"/>
<text text-anchor="middle" x="261" y="-179.3" font-family="Times,serif" font-size="14.00">Type</text>
</g>
<!-- Flower -->
<g id="node7" class="node"><title>Flower</title>
<ellipse fill="none" stroke="black" cx="261" cy="-90" rx="35.9954" ry="18"/>
<text text-anchor="middle" x="261" y="-86.3" font-family="Times,serif" font-size="14.00">Flower</text>
</g>
<!-- Type&#45;&gt;Flower -->
<g id="edge5" class="edge"><title>Type&#45;&gt;Flower</title>
<path fill="none" stroke="#e9b3d9" d="M261,-154.549C261,-143.083 261,-129.792 261,-118.339"/>
<polygon fill="#e9b3d9" stroke="#e9b3d9" points="261,-154.884 256.5,-164.884 261,-159.884 261,-164.884 261,-164.884 261,-164.884 261,-159.884 265.5,-164.884 261,-154.884 261,-154.884"/>
<polygon fill="#e9b3d9" stroke="#e9b3d9" points="261,-118.04 265.5,-108.04 261,-113.04 261,-108.04 261,-108.04 261,-108.04 261,-113.04 256.5,-108.04 261,-118.04 261,-118.04"/>
</g>
<!-- Flower&#45;&gt;OrderItem -->
<g id="edge6" class="edge"><title>Flower&#45;&gt;OrderItem</title>
<path fill="none" stroke="#377960" d="M295.88,-75.4354C325.51,-63.9129 368.101,-47.3498 399.482,-35.146"/>
<ellipse fill="none" stroke="#377960" cx="292.066" cy="-76.9187" rx="4.00001" ry="4.00001"/>
<polygon fill="#377960" stroke="#377960" points="399.514,-35.1334 410.465,-35.7029 404.174,-33.3212 408.834,-31.5089 408.834,-31.5089 408.834,-31.5089 404.174,-33.3212 407.203,-27.3149 399.514,-35.1334 399.514,-35.1334"/>
</g>
<!-- Flower&#45;&gt;Comment -->
<g id="edge7" class="edge"><title>Flower&#45;&gt;Comment</title>
<path fill="none" stroke="#8d109b" d="M272.102,-64.7144C274.965,-58.4507 278.06,-51.6804 280.969,-45.3185"/>
<ellipse fill="none" stroke="#8d109b" cx="270.409" cy="-68.4171" rx="4.00002" ry="4.00002"/>
<polygon fill="#8d109b" stroke="#8d109b" points="281.167,-44.8838 289.418,-37.6599 283.246,-40.3364 285.325,-35.789 285.325,-35.789 285.325,-35.789 283.246,-40.3364 281.232,-33.9181 281.167,-44.8838 281.167,-44.8838"/>
</g>
</g>
</svg>
