<?xml version="1.0" encoding="UTF-8" standalone="no"?>
<!DOCTYPE svg PUBLIC "-//W3C//DTD SVG 1.1//EN"
 "http://www.w3.org/Graphics/SVG/1.1/DTD/svg11.dtd">
<!-- Generated by graphviz version 2.38.0 (20140413.2041)
 -->
<!-- Title: models_diagram Pages: 1 -->
<svg width="748pt" height="581pt"
 viewBox="0.00 0.00 747.50 581.00" xmlns="http://www.w3.org/2000/svg" xmlns:xlink="http://www.w3.org/1999/xlink">
<g id="graph0" class="graph" transform="scale(1 1) rotate(0) translate(4 577)">
<title>models_diagram</title>
<polygon fill="none" stroke="none" points="-4,4 -4,-577 743.5,-577 743.5,4 -4,4"/>
<!-- _diagram_info -->
<g id="node1" class="node"><title>_diagram_info</title>
<text text-anchor="start" x="8" y="-521.6" font-family="Times,serif" font-size="13.00">Models diagram</text>
<text text-anchor="start" x="8" y="-507.6" font-family="Times,serif" font-size="13.00">Date: Sep 09 2015 &#45; 02:05</text>
<text text-anchor="start" x="8" y="-493.6" font-family="Times,serif" font-size="13.00">Migration version: 20150908112732</text>
<text text-anchor="start" x="8" y="-479.6" font-family="Times,serif" font-size="13.00">Generated by RailRoady 1.3.1</text>
<text text-anchor="start" x="8" y="-465.6" font-family="Times,serif" font-size="13.00">http://railroady.prestonlee.com</text>
</g>
<!-- Session -->
<g id="node2" class="node"><title>Session</title>
<path fill="none" stroke="black" d="M471.5,-226C471.5,-226 578.5,-226 578.5,-226 584.5,-226 590.5,-232 590.5,-238 590.5,-238 590.5,-335 590.5,-335 590.5,-341 584.5,-347 578.5,-347 578.5,-347 471.5,-347 471.5,-347 465.5,-347 459.5,-341 459.5,-335 459.5,-335 459.5,-238 459.5,-238 459.5,-232 465.5,-226 471.5,-226"/>
<text text-anchor="middle" x="525" y="-331.8" font-family="Times,serif" font-size="14.00">Session</text>
<polyline fill="none" stroke="black" points="459.5,-324 590.5,-324 "/>
<text text-anchor="start" x="467.5" y="-308.8" font-family="Times,serif" font-size="14.00">id :integer</text>
<text text-anchor="start" x="467.5" y="-293.8" font-family="Times,serif" font-size="14.00">user_id :integer</text>
<text text-anchor="start" x="467.5" y="-278.8" font-family="Times,serif" font-size="14.00">token :string</text>
<text text-anchor="start" x="467.5" y="-263.8" font-family="Times,serif" font-size="14.00">created_at :datetime</text>
<text text-anchor="start" x="467.5" y="-248.8" font-family="Times,serif" font-size="14.00">updated_at :datetime</text>
<text text-anchor="start" x="467.5" y="-233.8" font-family="Times,serif" font-size="14.00">expires_at :datetime</text>
</g>
<!-- Order -->
<g id="node3" class="node"><title>Order</title>
<path fill="none" stroke="black" d="M620.5,-211C620.5,-211 727.5,-211 727.5,-211 733.5,-211 739.5,-217 739.5,-223 739.5,-223 739.5,-350 739.5,-350 739.5,-356 733.5,-362 727.5,-362 727.5,-362 620.5,-362 620.5,-362 614.5,-362 608.5,-356 608.5,-350 608.5,-350 608.5,-223 608.5,-223 608.5,-217 614.5,-211 620.5,-211"/>
<text text-anchor="middle" x="674" y="-346.8" font-family="Times,serif" font-size="14.00">Order</text>
<polyline fill="none" stroke="black" points="608.5,-339 739.5,-339 "/>
<text text-anchor="start" x="616.5" y="-323.8" font-family="Times,serif" font-size="14.00">id :integer</text>
<text text-anchor="start" x="616.5" y="-308.8" font-family="Times,serif" font-size="14.00">user_id :integer</text>
<text text-anchor="start" x="616.5" y="-293.8" font-family="Times,serif" font-size="14.00">total :decimal</text>
<text text-anchor="start" x="616.5" y="-278.8" font-family="Times,serif" font-size="14.00">created_at :datetime</text>
<text text-anchor="start" x="616.5" y="-263.8" font-family="Times,serif" font-size="14.00">updated_at :datetime</text>
<text text-anchor="start" x="616.5" y="-248.8" font-family="Times,serif" font-size="14.00">state :string</text>
<text text-anchor="start" x="616.5" y="-233.8" font-family="Times,serif" font-size="14.00">address :string</text>
<text text-anchor="start" x="616.5" y="-218.8" font-family="Times,serif" font-size="14.00">delivery_date :date</text>
</g>
<!-- OrderItem -->
<g id="node4" class="node"><title>OrderItem</title>
<path fill="none" stroke="black" d="M539.5,-0.5C539.5,-0.5 646.5,-0.5 646.5,-0.5 652.5,-0.5 658.5,-6.5 658.5,-12.5 658.5,-12.5 658.5,-139.5 658.5,-139.5 658.5,-145.5 652.5,-151.5 646.5,-151.5 646.5,-151.5 539.5,-151.5 539.5,-151.5 533.5,-151.5 527.5,-145.5 527.5,-139.5 527.5,-139.5 527.5,-12.5 527.5,-12.5 527.5,-6.5 533.5,-0.5 539.5,-0.5"/>
<text text-anchor="middle" x="593" y="-136.3" font-family="Times,serif" font-size="14.00">OrderItem</text>
<polyline fill="none" stroke="black" points="527.5,-128.5 658.5,-128.5 "/>
<text text-anchor="start" x="535.5" y="-113.3" font-family="Times,serif" font-size="14.00">id :integer</text>
<text text-anchor="start" x="535.5" y="-98.3" font-family="Times,serif" font-size="14.00">order_id :integer</text>
<text text-anchor="start" x="535.5" y="-83.3" font-family="Times,serif" font-size="14.00">flower_id :integer</text>
<text text-anchor="start" x="535.5" y="-68.3" font-family="Times,serif" font-size="14.00">quantity :integer</text>
<text text-anchor="start" x="535.5" y="-53.3" font-family="Times,serif" font-size="14.00">subtotal :decimal</text>
<text text-anchor="start" x="535.5" y="-38.3" font-family="Times,serif" font-size="14.00">created_at :datetime</text>
<text text-anchor="start" x="535.5" y="-23.3" font-family="Times,serif" font-size="14.00">updated_at :datetime</text>
<text text-anchor="start" x="535.5" y="-8.3" font-family="Times,serif" font-size="14.00">unit_price :decimal</text>
</g>
<!-- Order&#45;&gt;OrderItem -->
<g id="edge1" class="edge"><title>Order&#45;&gt;OrderItem</title>
<path fill="none" stroke="#a50b22" d="M641.974,-203.063C636.604,-189.24 631.026,-174.881 625.64,-161.018"/>
<ellipse fill="none" stroke="#a50b22" cx="643.537" cy="-207.087" rx="4.00001" ry="4.00001"/>
<polygon fill="#a50b22" stroke="#a50b22" points="625.569,-160.834 626.142,-149.884 623.758,-156.174 621.948,-151.513 621.948,-151.513 621.948,-151.513 623.758,-156.174 617.753,-153.143 625.569,-160.834 625.569,-160.834"/>
</g>
<!-- User -->
<g id="node5" class="node"><title>User</title>
<path fill="none" stroke="black" d="M464.5,-421.5C464.5,-421.5 585.5,-421.5 585.5,-421.5 591.5,-421.5 597.5,-427.5 597.5,-433.5 597.5,-433.5 597.5,-560.5 597.5,-560.5 597.5,-566.5 591.5,-572.5 585.5,-572.5 585.5,-572.5 464.5,-572.5 464.5,-572.5 458.5,-572.5 452.5,-566.5 452.5,-560.5 452.5,-560.5 452.5,-433.5 452.5,-433.5 452.5,-427.5 458.5,-421.5 464.5,-421.5"/>
<text text-anchor="middle" x="525" y="-557.3" font-family="Times,serif" font-size="14.00">User</text>
<polyline fill="none" stroke="black" points="452.5,-549.5 597.5,-549.5 "/>
<text text-anchor="start" x="460.5" y="-534.3" font-family="Times,serif" font-size="14.00">id :integer</text>
<text text-anchor="start" x="460.5" y="-519.3" font-family="Times,serif" font-size="14.00">firstname :string</text>
<text text-anchor="start" x="460.5" y="-504.3" font-family="Times,serif" font-size="14.00">lastname :string</text>
<text text-anchor="start" x="460.5" y="-489.3" font-family="Times,serif" font-size="14.00">email :string</text>
<text text-anchor="start" x="460.5" y="-474.3" font-family="Times,serif" font-size="14.00">password_digest :string</text>
<text text-anchor="start" x="460.5" y="-459.3" font-family="Times,serif" font-size="14.00">created_at :datetime</text>
<text text-anchor="start" x="460.5" y="-444.3" font-family="Times,serif" font-size="14.00">updated_at :datetime</text>
<text text-anchor="start" x="460.5" y="-429.3" font-family="Times,serif" font-size="14.00">admin :boolean</text>
</g>
<!-- User&#45;&gt;Session -->
<g id="edge4" class="edge"><title>User&#45;&gt;Session</title>
<path fill="none" stroke="#eead44" d="M525,-413.265C525,-394.153 525,-374.033 525,-355.626"/>
<ellipse fill="none" stroke="#eead44" cx="525" cy="-417.316" rx="4" ry="4"/>
<ellipse fill="#eead44" stroke="#eead44" cx="525" cy="-351.3" rx="4" ry="4"/>
</g>
<!-- User&#45;&gt;Order -->
<g id="edge2" class="edge"><title>User&#45;&gt;Order</title>
<path fill="none" stroke="#5259bd" d="M583.255,-414.482C593.584,-400.029 604.35,-384.963 614.707,-370.471"/>
<ellipse fill="none" stroke="#5259bd" cx="580.697" cy="-418.061" rx="4.00002" ry="4.00002"/>
<polygon fill="#5259bd" stroke="#5259bd" points="614.937,-370.149 624.412,-364.63 617.844,-366.081 620.751,-362.013 620.751,-362.013 620.751,-362.013 617.844,-366.081 617.09,-359.397 614.937,-370.149 614.937,-370.149"/>
</g>
<!-- Comment -->
<g id="node8" class="node"><title>Comment</title>
<path fill="none" stroke="black" d="M310.5,-15.5C310.5,-15.5 417.5,-15.5 417.5,-15.5 423.5,-15.5 429.5,-21.5 429.5,-27.5 429.5,-27.5 429.5,-124.5 429.5,-124.5 429.5,-130.5 423.5,-136.5 417.5,-136.5 417.5,-136.5 310.5,-136.5 310.5,-136.5 304.5,-136.5 298.5,-130.5 298.5,-124.5 298.5,-124.5 298.5,-27.5 298.5,-27.5 298.5,-21.5 304.5,-15.5 310.5,-15.5"/>
<text text-anchor="middle" x="364" y="-121.3" font-family="Times,serif" font-size="14.00">Comment</text>
<polyline fill="none" stroke="black" points="298.5,-113.5 429.5,-113.5 "/>
<text text-anchor="start" x="306.5" y="-98.3" font-family="Times,serif" font-size="14.00">id :integer</text>
<text text-anchor="start" x="306.5" y="-83.3" font-family="Times,serif" font-size="14.00">user_id :integer</text>
<text text-anchor="start" x="306.5" y="-68.3" font-family="Times,serif" font-size="14.00">flower_id :integer</text>
<text text-anchor="start" x="306.5" y="-53.3" font-family="Times,serif" font-size="14.00">body :text</text>
<text text-anchor="start" x="306.5" y="-38.3" font-family="Times,serif" font-size="14.00">created_at :datetime</text>
<text text-anchor="start" x="306.5" y="-23.3" font-family="Times,serif" font-size="14.00">updated_at :datetime</text>
</g>
<!-- User&#45;&gt;Comment -->
<g id="edge3" class="edge"><title>User&#45;&gt;Comment</title>
<path fill="none" stroke="#86b1ec" d="M465.616,-414.511C460.121,-404.855 455.091,-394.905 451,-385 416.924,-302.506 438.53,-273.221 412,-188 407.69,-174.155 402.212,-159.702 396.51,-145.976"/>
<ellipse fill="none" stroke="#86b1ec" cx="467.675" cy="-418.032" rx="4.00002" ry="4.00002"/>
<polygon fill="#86b1ec" stroke="#86b1ec" points="396.441,-145.813 396.682,-134.85 394.49,-141.21 392.538,-136.606 392.538,-136.606 392.538,-136.606 394.49,-141.21 388.395,-138.363 396.441,-145.813 396.441,-145.813"/>
</g>
<!-- Type -->
<g id="node6" class="node"><title>Type</title>
<path fill="none" stroke="black" d="M244.5,-444C244.5,-444 351.5,-444 351.5,-444 357.5,-444 363.5,-450 363.5,-456 363.5,-456 363.5,-538 363.5,-538 363.5,-544 357.5,-550 351.5,-550 351.5,-550 244.5,-550 244.5,-550 238.5,-550 232.5,-544 232.5,-538 232.5,-538 232.5,-456 232.5,-456 232.5,-450 238.5,-444 244.5,-444"/>
<text text-anchor="middle" x="298" y="-534.8" font-family="Times,serif" font-size="14.00">Type</text>
<polyline fill="none" stroke="black" points="232.5,-527 363.5,-527 "/>
<text text-anchor="start" x="240.5" y="-511.8" font-family="Times,serif" font-size="14.00">id :integer</text>
<text text-anchor="start" x="240.5" y="-496.8" font-family="Times,serif" font-size="14.00">name :string</text>
<text text-anchor="start" x="240.5" y="-481.8" font-family="Times,serif" font-size="14.00">created_at :datetime</text>
<text text-anchor="start" x="240.5" y="-466.8" font-family="Times,serif" font-size="14.00">updated_at :datetime</text>
<text text-anchor="start" x="240.5" y="-451.8" font-family="Times,serif" font-size="14.00">dropdown :string</text>
</g>
<!-- Flower -->
<g id="node7" class="node"><title>Flower</title>
<path fill="none" stroke="black" d="M205,-188.5C205,-188.5 391,-188.5 391,-188.5 397,-188.5 403,-194.5 403,-200.5 403,-200.5 403,-372.5 403,-372.5 403,-378.5 397,-384.5 391,-384.5 391,-384.5 205,-384.5 205,-384.5 199,-384.5 193,-378.5 193,-372.5 193,-372.5 193,-200.5 193,-200.5 193,-194.5 199,-188.5 205,-188.5"/>
<text text-anchor="middle" x="298" y="-369.3" font-family="Times,serif" font-size="14.00">Flower</text>
<polyline fill="none" stroke="black" points="193,-361.5 403,-361.5 "/>
<text text-anchor="start" x="201" y="-346.3" font-family="Times,serif" font-size="14.00">id :integer</text>
<text text-anchor="start" x="201" y="-331.3" font-family="Times,serif" font-size="14.00">name :string</text>
<text text-anchor="start" x="201" y="-316.3" font-family="Times,serif" font-size="14.00">description :text</text>
<text text-anchor="start" x="201" y="-301.3" font-family="Times,serif" font-size="14.00">price :decimal</text>
<text text-anchor="start" x="201" y="-286.3" font-family="Times,serif" font-size="14.00">quantity :integer</text>
<text text-anchor="start" x="201" y="-271.3" font-family="Times,serif" font-size="14.00">created_at :datetime</text>
<text text-anchor="start" x="201" y="-256.3" font-family="Times,serif" font-size="14.00">updated_at :datetime</text>
<text text-anchor="start" x="201" y="-241.3" font-family="Times,serif" font-size="14.00">flower_photo_file_name :string</text>
<text text-anchor="start" x="201" y="-226.3" font-family="Times,serif" font-size="14.00">flower_photo_content_type :string</text>
<text text-anchor="start" x="201" y="-211.3" font-family="Times,serif" font-size="14.00">flower_photo_file_size :integer</text>
<text text-anchor="start" x="201" y="-196.3" font-family="Times,serif" font-size="14.00">flower_photo_updated_at :datetime</text>
</g>
<!-- Type&#45;&gt;Flower -->
<g id="edge5" class="edge"><title>Type&#45;&gt;Flower</title>
<path fill="none" stroke="#465094" d="M298,-433.542C298,-421.301 298,-408.138 298,-394.907"/>
<polygon fill="#465094" stroke="#465094" points="298,-433.924 293.5,-443.924 298,-438.924 298,-443.924 298,-443.924 298,-443.924 298,-438.924 302.5,-443.925 298,-433.924 298,-433.924"/>
<polygon fill="#465094" stroke="#465094" points="298,-394.791 302.5,-384.791 298,-389.791 298,-384.791 298,-384.791 298,-384.791 298,-389.791 293.5,-384.791 298,-394.791 298,-394.791"/>
</g>
<!-- Flower&#45;&gt;OrderItem -->
<g id="edge6" class="edge"><title>Flower&#45;&gt;OrderItem</title>
<path fill="none" stroke="#56f4d4" d="M410.08,-206.284C446.553,-180.505 486.098,-152.556 519.056,-129.262"/>
<ellipse fill="none" stroke="#56f4d4" cx="406.519" cy="-208.801" rx="4.00002" ry="4.00002"/>
<polygon fill="#56f4d4" stroke="#56f4d4" points="519.122,-129.216 529.885,-127.119 523.205,-126.33 527.288,-123.444 527.288,-123.444 527.288,-123.444 523.205,-126.33 524.691,-119.769 519.122,-129.216 519.122,-129.216"/>
</g>
<!-- Flower&#45;&gt;Comment -->
<g id="edge7" class="edge"><title>Flower&#45;&gt;Comment</title>
<path fill="none" stroke="#074eb2" d="M331.266,-180.411C334.91,-168.898 338.55,-157.399 342.008,-146.475"/>
<ellipse fill="none" stroke="#074eb2" cx="329.985" cy="-184.456" rx="4.00001" ry="4.00001"/>
<polygon fill="#074eb2" stroke="#074eb2" points="342.109,-146.154 349.418,-137.978 343.618,-141.387 345.127,-136.62 345.127,-136.62 345.127,-136.62 343.618,-141.387 340.837,-135.262 342.109,-146.154 342.109,-146.154"/>
</g>
</g>
</svg>
